<?xml version="1.0" encoding="iso-8859-1"?>
<!-- Generator: Adobe Illustrator 19.0.0, SVG Export Plug-In . SVG Version: 6.00 Build 0)  -->
<svg version="1.1" id="Layer_1" xmlns="http://www.w3.org/2000/svg" xmlns:xlink="http://www.w3.org/1999/xlink" x="0px" y="0px"
	 viewBox="0 0 512.001 512.001" style="enable-background:new 0 0 512.001 512.001;" xml:space="preserve">
<g>
	<path style="fill:#E71B3F;" d="M210.668,432.645c0,5.099-1.23,11.248-2.53,17.761c-2.914,14.574-6.538,32.715,4.828,46.577
		c8.286,10.104,22.362,15.017,43.033,15.017c20.67,0,34.747-4.912,43.031-15.017c11.368-13.864,7.743-32.003,4.831-46.577
		c-1.301-6.513-2.53-12.662-2.53-17.761H210.668"/>
	<path style="fill:#E71B3F;" d="M182.003,128.784c-0.285-0.446-7.043-11.088-11.558-24.671c-8.696-26.155-2.377-42.294,4.456-51.229
		c8.766-11.463,19.622-15.683,29.006-16.446c1.631-3.389,3.723-7.166,6.35-10.967C221.775,8.807,237.593,0,255.998,0
		c18.407,0,34.225,8.807,45.741,25.469c2.626,3.799,4.719,7.58,6.35,10.967c9.384,0.763,20.242,4.983,29.006,16.448
		c6.833,8.934,13.151,25.073,4.457,51.227c-4.515,13.584-11.272,24.225-11.558,24.671H182.003"/>
</g>
<path style="fill:#EAEAEA;" d="M255.998,449.632c-47.591,0-93.058-21.696-128.018-61.087
	c-33.125-37.323-52.123-86.067-52.123-133.733c0-47.768,18.628-88.375,53.874-117.435c32.386-26.702,77.228-41.409,126.267-41.409
	c49.039,0,93.882,14.707,126.268,41.409c35.244,29.061,53.874,69.668,53.874,117.435c0,47.666-18.997,96.412-52.123,133.733
	C349.055,427.936,303.59,449.632,255.998,449.632"/>
<polyline style="fill:#FFAB00;" points="255.998,405.329 181.286,286.686 255.998,219.494 330.712,286.686 255.998,405.329 "/>
<g>
	<path style="fill:#333333;" d="M155.893,227.278c0-11.513,9.229-20.835,20.569-20.835c11.355,0,20.582,9.323,20.582,20.835
		c0,11.511-9.227,20.842-20.582,20.842C165.123,248.119,155.893,238.788,155.893,227.278z"/>
	<path style="fill:#333333;" d="M356.103,227.278c0-11.597-9.287-20.997-20.723-20.997c-11.45,0-20.739,9.401-20.739,20.997
		s9.289,20.999,20.739,20.999C346.816,248.276,356.103,238.874,356.103,227.278"/>
</g>
<path style="fill:#BDBDBF;" d="M255.998,512L255.998,512h0.001l0,0 M302.377,442.608l-0.004,0.001
	c0.43,2.506,0.953,5.12,1.487,7.797c1.394,6.974,2.951,14.764,2.95,22.511c0.001-7.748-1.556-15.538-2.95-22.511
	C303.326,447.727,302.808,445.116,302.377,442.608 M376.208,396.875c-0.014,0.014-0.027,0.027-0.041,0.041
	C376.181,396.903,376.194,396.889,376.208,396.875 M376.807,396.267c-0.024,0.025-0.048,0.048-0.072,0.073
	C376.759,396.316,376.784,396.291,376.807,396.267 M377.086,395.983c-0.033,0.033-0.065,0.066-0.098,0.099
	C377.022,396.049,377.054,396.016,377.086,395.983 M377.338,395.725c-0.026,0.027-0.049,0.049-0.075,0.077
	C377.288,395.776,377.313,395.751,377.338,395.725 M377.687,395.365c-0.038,0.039-0.076,0.078-0.114,0.117
	C377.612,395.444,377.65,395.405,377.687,395.365 M377.951,395.095c-0.044,0.045-0.088,0.091-0.132,0.136
	C377.863,395.186,377.907,395.141,377.951,395.095 M378.339,394.69c-0.09,0.094-0.183,0.19-0.274,0.284
	C378.157,394.88,378.248,394.785,378.339,394.69 M378.569,394.452c-0.055,0.057-0.11,0.115-0.165,0.172
	C378.458,394.567,378.515,394.509,378.569,394.452 M378.809,394.201c-0.055,0.057-0.11,0.115-0.165,0.172
	C378.7,394.315,378.754,394.259,378.809,394.201 M379.44,393.538c-0.192,0.203-0.386,0.406-0.579,0.608
	C379.053,393.945,379.248,393.741,379.44,393.538 M380.279,392.648c-0.273,0.29-0.543,0.578-0.816,0.867
	C379.735,393.226,380.007,392.938,380.279,392.648 M381.107,391.756c-0.266,0.288-0.537,0.579-0.805,0.865
	C380.57,392.335,380.841,392.045,381.107,391.756 M381.941,390.85c-0.268,0.293-0.531,0.578-0.799,0.869
	C381.408,391.431,381.676,391.141,381.941,390.85 M382.163,390.608c-0.065,0.071-0.125,0.137-0.19,0.208
	C382.036,390.746,382.099,390.677,382.163,390.608 M382.541,390.191c-0.122,0.135-0.247,0.272-0.37,0.406
	C382.293,390.464,382.419,390.326,382.541,390.191 M382.742,389.968c-0.053,0.06-0.104,0.116-0.159,0.174
	C382.637,390.084,382.689,390.027,382.742,389.968 M382.977,389.708c-0.051,0.057-0.101,0.113-0.154,0.17
	C382.873,389.823,382.926,389.765,382.977,389.708 M383.293,389.356c-0.075,0.084-0.15,0.167-0.225,0.251
	C383.143,389.524,383.219,389.44,383.293,389.356 M383.539,389.081c-0.039,0.043-0.078,0.087-0.117,0.131
	C383.461,389.169,383.5,389.125,383.539,389.081 M383.779,388.813c-0.032,0.037-0.066,0.074-0.098,0.11
	C383.713,388.886,383.747,388.849,383.779,388.813 M381.944,137.113c0.016,0.014,0.034,0.028,0.05,0.042
	C381.978,137.14,381.962,137.126,381.944,137.113 M381.664,136.883l0.004,0.003C381.667,136.885,381.666,136.884,381.664,136.883
	 M341.059,105.559c-0.005,0.015-0.01,0.028-0.016,0.044C341.049,105.588,341.054,105.573,341.059,105.559 M341.153,105.287
	c-0.008,0.022-0.016,0.044-0.023,0.067C341.138,105.331,341.146,105.309,341.153,105.287 M341.231,105.061
	c-0.01,0.031-0.022,0.063-0.032,0.094C341.21,105.124,341.22,105.094,341.231,105.061 M341.325,104.789
	c-0.011,0.034-0.023,0.068-0.034,0.102C341.301,104.857,341.313,104.822,341.325,104.789 M341.409,104.537
	c-0.016,0.047-0.031,0.092-0.047,0.139C341.378,104.63,341.394,104.583,341.409,104.537 M341.485,104.314
	c-0.009,0.028-0.019,0.056-0.028,0.085C341.466,104.371,341.475,104.342,341.485,104.314"/>
<g>
	<path style="fill:#AB142F;" d="M302.374,442.609c-15.021,4.634-30.579,7.023-46.376,7.023V512c0.001,0,0.001,0,0.001,0l0,0
		c20.67,0,34.747-4.912,43.031-15.017c5.929-7.23,7.779-15.622,7.78-24.066c0.001-7.748-1.556-15.538-2.95-22.511
		C303.326,447.729,302.804,445.115,302.374,442.609"/>
	<path style="fill:#AB142F;" d="M255.998,0v95.967c29.743,0,57.94,5.409,82.752,15.624c0.789-1.901,1.565-3.906,2.294-5.989
		c0.005-0.015,0.01-0.028,0.016-0.044c0.024-0.068,0.048-0.137,0.071-0.205c0.008-0.023,0.016-0.044,0.023-0.067
		c0.015-0.044,0.03-0.087,0.045-0.131c0.01-0.031,0.022-0.063,0.032-0.094c0.02-0.056,0.039-0.114,0.059-0.171
		c0.011-0.034,0.023-0.068,0.034-0.102c0.013-0.038,0.025-0.075,0.039-0.112c0.016-0.047,0.031-0.092,0.047-0.139
		c0.016-0.046,0.031-0.092,0.046-0.138c0.009-0.028,0.019-0.056,0.028-0.085c0.023-0.067,0.045-0.135,0.068-0.203
		c3.023-9.093,4.231-16.975,4.234-23.765c0.005-12.74-4.233-21.635-8.69-27.462c-8.766-11.465-19.622-15.684-29.006-16.448
		c-1.631-3.388-3.724-7.168-6.35-10.967C290.222,8.807,274.405,0,255.998,0"/>
</g>
<path style="fill:#AEAEAF;" d="M335.38,248.276c-11.45,0-20.739-9.402-20.739-20.999s9.289-20.997,20.739-20.997
	c11.435,0,20.723,9.401,20.723,20.997S346.816,248.276,335.38,248.276 M255.998,95.967v123.528l74.713,67.19l-74.713,118.645v44.303
	c15.797,0,31.354-2.389,46.376-7.023l0.004-0.001c-0.001-0.005-0.002-0.009-0.002-0.015c26.921-8.304,52.107-23.804,73.792-45.677
	c0.014-0.014,0.027-0.027,0.041-0.041c0.177-0.179,0.352-0.355,0.529-0.535c0.024-0.025,0.048-0.048,0.072-0.073
	c0.061-0.062,0.12-0.123,0.182-0.185c0.033-0.033,0.065-0.066,0.098-0.099c0.06-0.061,0.117-0.12,0.177-0.181
	c0.026-0.027,0.049-0.05,0.075-0.077c0.078-0.08,0.157-0.161,0.235-0.241c0.038-0.039,0.076-0.078,0.114-0.117
	c0.043-0.044,0.088-0.091,0.131-0.135c0.044-0.045,0.088-0.091,0.132-0.136c0.039-0.04,0.077-0.079,0.115-0.119
	c0.09-0.094,0.183-0.19,0.274-0.284c0.022-0.023,0.043-0.044,0.065-0.067c0.055-0.057,0.11-0.114,0.165-0.172
	c0.025-0.026,0.05-0.052,0.075-0.078c0.055-0.057,0.11-0.115,0.165-0.172c0.018-0.019,0.034-0.036,0.052-0.054
	c0.193-0.202,0.387-0.405,0.579-0.608c0.007-0.008,0.015-0.016,0.022-0.023c0.274-0.289,0.544-0.577,0.816-0.867
	c0.008-0.009,0.016-0.017,0.024-0.026c0.267-0.286,0.538-0.577,0.805-0.865c0.012-0.013,0.023-0.024,0.034-0.038
	c0.269-0.29,0.532-0.576,0.799-0.869c0.012-0.013,0.02-0.022,0.031-0.036c0.065-0.07,0.125-0.137,0.19-0.208
	c0.003-0.003,0.006-0.006,0.009-0.01c0.123-0.135,0.247-0.271,0.37-0.406c0.015-0.016,0.029-0.032,0.043-0.048
	c0.053-0.06,0.104-0.116,0.159-0.174c0.027-0.03,0.053-0.06,0.08-0.09c0.051-0.057,0.101-0.113,0.154-0.17
	c0.031-0.034,0.061-0.067,0.092-0.101c0.075-0.084,0.15-0.167,0.225-0.251c0.043-0.048,0.087-0.096,0.13-0.144
	c0.039-0.043,0.078-0.087,0.117-0.131c0.047-0.052,0.094-0.106,0.141-0.159c0.032-0.036,0.066-0.074,0.098-0.11
	c0.079-0.09,0.158-0.178,0.238-0.267c33.124-37.323,52.123-86.067,52.123-133.733c0-47.768-18.628-88.375-53.874-117.435l0,0
	c-0.09-0.074-0.181-0.148-0.271-0.223c-0.016-0.013-0.034-0.028-0.05-0.042c-0.091-0.075-0.185-0.152-0.276-0.226l-0.004-0.003
	c-12.604-10.285-27.073-18.759-42.918-25.282c0.001-0.003,0.003-0.006,0.004-0.009C313.938,101.376,285.74,95.967,255.998,95.967"/>
<polyline style="fill:#BD7F00;" points="255.998,219.494 255.998,405.329 330.712,286.686 255.998,219.494 "/>
<g>
</g>
<g>
</g>
<g>
</g>
<g>
</g>
<g>
</g>
<g>
</g>
<g>
</g>
<g>
</g>
<g>
</g>
<g>
</g>
<g>
</g>
<g>
</g>
<g>
</g>
<g>
</g>
<g>
</g>
</svg>
